<?xml version="1.0" encoding="utf-8"?>
<!-- Generator: Adobe Illustrator 18.1.1, SVG Export Plug-In . SVG Version: 6.00 Build 0)  -->
<svg version="1.1" xmlns="http://www.w3.org/2000/svg" xmlns:xlink="http://www.w3.org/1999/xlink" x="0px" y="0px"
	 viewBox="0 0 61.6 46.9" enable-background="new 0 0 61.6 46.9" xml:space="preserve">
<g id="Layer_1">
	<g>
		<path fill="#3BC2D7" d="M21.8,33.9L21.8,33.9L21.8,33.9L21.8,33.9z M39.3,8.6L39.3,8.6L39.3,8.6L39.3,8.6z M20.7,32.3
			c0.7-0.5,1.1-1.2,1.3-2c0.1-0.8,0-1.6-0.5-2.3c-0.5-0.7-1.2-1.1-2-1.3c-0.8-0.1-1.6,0-2.3,0.5l0,0c-0.7,0.5-1.1,1.2-1.3,2
			c-0.1,0.8,0,1.6,0.5,2.3l0,0c0.5,0.7,1.2,1.1,2,1.3C19.2,32.9,20,32.8,20.7,32.3L20.7,32.3L20.7,32.3z M38.3,36.6L38.3,36.6
			L38.3,36.6c0.5-0.3,0.8-0.7,1-1.2l0,0c0.2-0.5,0.1-1.1-0.2-1.6l0,0c-0.3-0.5-0.7-0.8-1.2-1c-0.5-0.2-1.1-0.1-1.6,0.1l0,0
			c-0.5,0.3-0.9,0.7-1,1.2c-0.2,0.5-0.1,1.1,0.2,1.6l0,0h0c0.3,0.5,0.7,0.9,1.2,1C37.3,36.9,37.8,36.9,38.3,36.6L38.3,36.6z
			 M41.2,36c-0.3,1-1,1.9-2,2.4l0,0l0,0l0,0c-1,0.5-2.1,0.6-3.1,0.3c-1-0.3-1.9-1-2.4-2l0,0h0c-0.5-1-0.6-2.1-0.3-3.1
			c0.2-0.7,0.6-1.3,1.2-1.8l-1-1.9c0.6-0.2,1.2-0.5,1.8-0.9l1,1.9c0.7-0.2,1.5-0.1,2.2,0.1c1,0.3,1.9,1,2.4,2l0,0
			C41.5,33.9,41.5,35,41.2,36L41.2,36L41.2,36z M26.5,27.5l-2.6,1.2c0.1,0.6,0.2,1.3,0,2c-0.2,1.3-0.9,2.5-2.1,3.3l0,0
			c-1.2,0.8-2.5,1.1-3.8,0.8c-1.3-0.2-2.5-0.9-3.3-2.1l0,0c-0.8-1.2-1.1-2.5-0.8-3.8c0.2-1.3,0.9-2.5,2.1-3.3l0,0
			c1.2-0.8,2.5-1.1,3.8-0.8c1.3,0.2,2.5,0.9,3.3,2.1l0,0l2.6-1.2C25.9,26.3,26.1,26.9,26.5,27.5L26.5,27.5z M26.7,20.3l-3.4-3.5
			c-0.7,0.4-1.6,0.5-2.4,0.2l0,0c-0.9-0.3-1.6-0.9-2-1.6v0c-0.4-0.7-0.5-1.6-0.2-2.5l0,0l0,0l0,0c0.3-0.9,0.9-1.6,1.6-1.9l0,0
			c0.7-0.4,1.6-0.5,2.5-0.2l0,0c0.9,0.3,1.5,0.9,1.9,1.6v0c0.4,0.7,0.5,1.6,0.2,2.5l0,0c-0.1,0.2-0.1,0.4-0.2,0.6l3.4,3.5
			C27.6,19.3,27.1,19.8,26.7,20.3L26.7,20.3z M32.5,17.9l0.9-2.8c-0.6-0.3-1.1-0.8-1.5-1.3l0,0c-0.7-1-0.9-2.2-0.7-3.4
			c0.2-1.1,0.8-2.2,1.9-2.9l0,0l0,0c1-0.7,2.2-1,3.4-0.8c1.1,0.2,2.2,0.8,2.9,1.9l0,0c0.7,1,1,2.2,0.8,3.4c-0.2,1.1-0.8,2.2-1.9,2.9
			l0,0l0,0l0,0c-0.9,0.6-1.9,0.9-2.9,0.8l-0.9,2.8c-0.3-0.1-0.6-0.3-0.9-0.4C33.1,18,32.8,17.9,32.5,17.9L32.5,17.9z M37.4,21.8
			l3.7-0.8c0-0.2,0.1-0.4,0.1-0.7v0c0.3-0.9,0.9-1.6,1.6-2h0c0.8-0.4,1.7-0.5,2.6-0.2l0,0c0.9,0.3,1.6,0.9,2,1.6v0
			c0.4,0.8,0.5,1.7,0.2,2.6l0,0c-0.3,0.9-0.9,1.6-1.6,2h0c-0.8,0.4-1.7,0.5-2.6,0.2c-0.9-0.3-1.5-0.8-1.9-1.6l-3.7,0.8
			C37.8,23.1,37.6,22.4,37.4,21.8L37.4,21.8z M37,13.3L37,13.3c0.6-0.4,1-1,1.1-1.7c0.1-0.6,0-1.3-0.4-1.9l0,0c-0.4-0.6-1-0.9-1.6-1
			c-0.6-0.1-1.3,0-1.9,0.4l0,0c-0.6,0.4-0.9,1-1,1.6c-0.1,0.6,0,1.3,0.4,1.9l0,0c0.4,0.6,1,0.9,1.6,1C35.8,13.8,36.4,13.6,37,13.3
			L37,13.3z M22.2,12.7L22.2,12.7L22.2,12.7c-0.3-0.1-0.7-0.1-1,0.1h0c-0.3,0.2-0.5,0.4-0.6,0.8l0,0v0c-0.1,0.3-0.1,0.7,0.1,1l0,0
			c0.2,0.3,0.4,0.5,0.8,0.6l0,0c0.3,0.1,0.7,0.1,1-0.1l0,0c0.3-0.2,0.5-0.4,0.6-0.8l0,0c0.1-0.3,0.1-0.7-0.1-1l0,0
			C22.8,13,22.6,12.8,22.2,12.7L22.2,12.7z M45.6,20.7L45.6,20.7c-0.2-0.3-0.4-0.6-0.8-0.7h0c-0.4-0.1-0.7-0.1-1,0.1l0,0
			c-0.3,0.2-0.6,0.4-0.7,0.8l0,0c-0.1,0.4-0.1,0.7,0.1,1v0c0.2,0.3,0.4,0.6,0.8,0.7c0.4,0.1,0.7,0.1,1-0.1l0,0
			c0.3-0.2,0.6-0.4,0.7-0.8v0C45.8,21.4,45.8,21,45.6,20.7L45.6,20.7z"/>
		<path fill-rule="evenodd" clip-rule="evenodd" fill="#3BC2D7" d="M33,19.7c2.4,0.7,3.8,3.3,3,5.7c-0.7,2.4-3.3,3.8-5.7,3
			c-2.4-0.7-3.8-3.3-3-5.7C28,20.3,30.6,18.9,33,19.7L33,19.7z"/>
	</g>
</g>
<g id="Grid_Artboards">
</g>
</svg>
