<?xml version="1.0" encoding="utf-8"?>
<!-- Generator: Adobe Illustrator 18.1.1, SVG Export Plug-In . SVG Version: 6.00 Build 0)  -->
<svg version="1.1" xmlns="http://www.w3.org/2000/svg" xmlns:xlink="http://www.w3.org/1999/xlink" x="0px" y="0px"
	 viewBox="0 0 61.6 46.9" enable-background="new 0 0 61.6 46.9" xml:space="preserve">
<g id="Layer_1">
	<path fill="#38C2D6" d="M49.6,19.3V7.9H33.3v4.8l-15.2,0v4.5h-6.1v11.5h6.1v4.9l15.2,0v4.8h16.4V26.9h-7.3v-7.5H49.6z M47.9,13.1
		v4.5H35v-4.5H47.9z M47.9,9.6v1.7H35V9.6H47.9z M13.7,20.6v-1.7h12.9v1.7H13.7z M20,28.6h8.3V17.2H20v-2.6h13.3v4.8h7.3v7.5h-7.3
		v4.8H20V28.6z M47.9,32.1v4.5H35v-4.5H47.9z M35,30.3v-1.7h12.9v1.7H35z M26.6,22.4v4.5H13.7v-4.5H26.6z"/>
</g>
<g id="Grid_Artboards">
</g>
</svg>
