<?xml version="1.0" encoding="utf-8"?>
<!-- Generator: Adobe Illustrator 18.1.1, SVG Export Plug-In . SVG Version: 6.00 Build 0)  -->
<svg version="1.1" xmlns="http://www.w3.org/2000/svg" xmlns:xlink="http://www.w3.org/1999/xlink" x="0px" y="0px"
	 viewBox="0 0 61.6 46.9" enable-background="new 0 0 61.6 46.9" xml:space="preserve">
<g id="Layer_1">
	<g>
		<g>
			<g>
				<path fill="#00B4D0" d="M40.1,32.9v-1.6h-0.7V13.2c0-0.2-0.1-0.3-0.3-0.3H25c-0.2,0-0.3,0.1-0.3,0.3v18.1H24v1.6H40.1z
					 M37.7,31.3h-2.2v-3.6c0-0.2-0.1-0.3-0.3-0.3h-1.6c-0.2,0-0.3,0.1-0.3,0.3v3.6h-6.9V14.5h11.3V31.3z"/>
				<path fill="#00B4D0" d="M29,19.1h1.6c0.2,0,0.3-0.1,0.3-0.3v-1.6c0-0.2-0.1-0.3-0.3-0.3H29c-0.2,0-0.3,0.1-0.3,0.3v1.6
					C28.7,19,28.8,19.1,29,19.1z"/>
				<path fill="#00B4D0" d="M33.5,19.1h1.6c0.2,0,0.3-0.1,0.3-0.3v-1.6c0-0.2-0.1-0.3-0.3-0.3h-1.6c-0.2,0-0.3,0.1-0.3,0.3v1.6
					C33.2,19,33.4,19.1,33.5,19.1z"/>
				<path fill="#00B4D0" d="M29,22.9h1.6c0.2,0,0.3-0.1,0.3-0.3v-1.6c0-0.2-0.1-0.3-0.3-0.3H29c-0.2,0-0.3,0.1-0.3,0.3v1.6
					C28.7,22.7,28.8,22.9,29,22.9z"/>
				<path fill="#00B4D0" d="M29,26.9h1.6c0.2,0,0.3-0.1,0.3-0.3V25c0-0.2-0.1-0.3-0.3-0.3H29c-0.2,0-0.3,0.1-0.3,0.3v1.6
					C28.7,26.8,28.8,26.9,29,26.9z"/>
				<path fill="#00B4D0" d="M33.5,22.9h1.6c0.2,0,0.3-0.1,0.3-0.3v-1.6c0-0.2-0.1-0.3-0.3-0.3h-1.6c-0.2,0-0.3,0.1-0.3,0.3v1.6
					C33.2,22.7,33.4,22.9,33.5,22.9z"/>
			</g>
			<path fill="#00B4D0" d="M29.8,39c0,0.1,0,0.1,0.1,0.2l0.2,0.2l0.4,0.4c0,0,0,0,0,0l2.1,2.2c0.1,0.1,0.3,0.1,0.4,0l0.6-0.6
				c0.1-0.1,0.1-0.3,0-0.4l-1-1c0.4,0,0.8,0,1.2-0.1c1.7-0.2,3.2-0.6,4.7-1.2c1.4-0.6,2.8-1.5,4.2-2.6c0.6-0.5,1.2-1.1,1.8-1.7
				c0.6-0.6,1.1-1.3,1.5-2c0.9-1.4,1.6-2.9,2.1-4.4c0.4-1.2,0.6-2.6,0.7-4c0.1-0.9,0-1.8-0.1-2.8c-0.1-1.3-0.4-2.6-0.8-3.8
				c-0.5-1.5-1.3-3-2.2-4.3c-0.9-1.3-2.1-2.6-3.5-3.6c-0.3-0.2-0.6-0.5-0.9-0.7c-0.1,0-0.2-0.1-0.2-0.1c0,0,0,0,0,0
				C41,8.5,41,8.5,40.9,8.5c0,0-0.1,0-0.1,0c-0.1,0-0.1,0.1-0.1,0.1c0,0,0,0,0,0l-0.1,0.1c0,0.1,0,0.2,0,0.2
				c0.6,0.4,1.3,0.9,1.9,1.4c0.7,0.6,1.3,1.2,1.7,1.8c0.6,0.8,1.1,1.4,1.4,2c0.4,0.7,0.8,1.4,1.1,2.2c0.6,1.4,0.9,2.8,1.1,4.1
				c0.1,0.7,0.1,1.3,0.1,1.9c0,0.3,0,0.7,0,1.1c-0.1,1.2-0.3,2.4-0.6,3.6c-0.5,1.6-1.2,3-2,4.3c-0.7,1-1.5,2-2.6,2.9
				c-0.5,0.5-1.2,1-2,1.5c-0.7,0.4-1.4,0.8-2.1,1.1c-1.4,0.6-3,1-4.6,1.2c-0.4,0-0.8,0.1-1.3,0.1l1-1c0.1-0.1,0.1-0.3,0-0.4L33.1,36
				c-0.1-0.1-0.3-0.1-0.4,0l-2.2,2.2c0,0,0,0,0,0L30,38.6l-0.2,0.2C29.8,38.8,29.8,38.9,29.8,39C29.8,38.9,29.8,38.9,29.8,39
				C29.8,39,29.8,39,29.8,39C29.8,39,29.8,39,29.8,39C29.8,39,29.8,39,29.8,39z"/>
			<path fill="#00B4D0" d="M34.2,6.9c0-0.1,0-0.1-0.1-0.2l-0.2-0.2L33.5,6c0,0,0,0,0,0l-2.1-2.2c-0.1-0.1-0.3-0.1-0.4,0l-0.6,0.6
				c-0.1,0.1-0.1,0.3,0,0.4l1,1c-0.4,0-0.8,0-1.2,0.1c-1.7,0.2-3.2,0.6-4.7,1.2c-1.4,0.6-2.8,1.5-4.2,2.6c-0.6,0.5-1.2,1.1-1.8,1.7
				c-0.6,0.6-1.1,1.3-1.5,2c-0.9,1.4-1.6,2.9-2.1,4.4c-0.4,1.2-0.6,2.6-0.7,4c-0.1,0.9,0,1.8,0.1,2.8c0.1,1.3,0.4,2.6,0.8,3.8
				c0.5,1.5,1.3,3,2.2,4.3c0.9,1.3,2.1,2.6,3.5,3.6c0.3,0.2,0.6,0.5,0.9,0.7c0.1,0,0.2,0.1,0.2,0.1c0,0,0,0,0,0
				c0.1,0.1,0.1,0.1,0.2,0.1c0,0,0.1,0,0.1,0c0.1,0,0.1-0.1,0.1-0.1c0,0,0,0,0,0l0.1-0.1c0-0.1,0-0.2,0-0.2
				c-0.6-0.4-1.3-0.9-1.9-1.4c-0.7-0.6-1.3-1.2-1.7-1.8c-0.6-0.8-1.1-1.4-1.4-2c-0.4-0.7-0.8-1.4-1.1-2.2c-0.6-1.4-0.9-2.8-1.1-4.1
				c-0.1-0.7-0.1-1.3-0.1-1.9c0-0.3,0-0.7,0-1.1c0.1-1.2,0.3-2.4,0.6-3.6c0.5-1.6,1.2-3,2-4.3c0.7-1,1.5-2,2.6-2.9
				c0.5-0.5,1.2-1,2-1.5c0.7-0.4,1.4-0.8,2.1-1.1c1.4-0.6,3-1,4.6-1.2c0.4,0,0.8-0.1,1.3-0.1l-1,1c-0.1,0.1-0.1,0.3,0,0.4l0.6,0.6
				c0.1,0.1,0.3,0.1,0.4,0l2.2-2.2c0,0,0,0,0,0L34,7.2l0.2-0.2C34.1,7,34.2,7,34.2,6.9C34.2,6.9,34.2,6.9,34.2,6.9
				C34.2,6.9,34.2,6.9,34.2,6.9C34.2,6.9,34.2,6.9,34.2,6.9C34.2,6.9,34.2,6.9,34.2,6.9z"/>
		</g>
	</g>
</g>
<g id="Grid_Artboards">
</g>
</svg>
