<?xml version="1.0" encoding="utf-8"?>
<!-- Generator: Adobe Illustrator 18.1.1, SVG Export Plug-In . SVG Version: 6.00 Build 0)  -->
<svg version="1.1" xmlns="http://www.w3.org/2000/svg" xmlns:xlink="http://www.w3.org/1999/xlink" x="0px" y="0px"
	 viewBox="0 0 61.6 46.9" enable-background="new 0 0 61.6 46.9" xml:space="preserve">
<g id="Layer_1">
	<g id="ForPresentation_copy_2_">
		<path fill="#3AC2D7" d="M46.2,32.9v-3l-1.8-0.3c-0.1-0.5-0.3-1-0.6-1.4l1.1-1.5l-2.1-2.1l-1.5,1.1c-0.4-0.2-0.9-0.4-1.4-0.6
			l-0.3-1.9h-3L36.1,25c-0.5,0.1-1,0.3-1.4,0.6l-1.5-1.1L31,26.6l1.1,1.5c-0.2,0.4-0.4,0.9-0.6,1.4l-1.8,0.3v3l1.9,0.3
			c0.1,0.5,0.3,1,0.6,1.4l-1.1,1.5l2.1,2.1l1.5-1.1c0.4,0.2,0.9,0.4,1.4,0.6l0.3,1.9h3l0.3-1.9c0.5-0.1,1-0.3,1.4-0.6l1.5,1.1
			l2.1-2.1l-1.1-1.5c0.2-0.4,0.4-0.9,0.6-1.4L46.2,32.9z M37.9,35.4c-2.2,0-4-1.8-4-4c0-2.2,1.8-4,4-4c2.2,0,4,1.8,4,4
			S40.1,35.4,37.9,35.4z"/>
		<g>
			<path fill="#3AC2D7" d="M25.8,34.9L25.8,34.9c-0.4-0.1-0.6-0.1-0.8-0.2c0.2,0.7,0.3,1.6,0.2,2.5l-4.9-3.9
				c0.9-0.3,1.8-0.4,2.5-0.3c1.2,0,2,0.3,2.1,0.3c0.1,0,0.5,0.2,1.1,0.3l0,0c0.4,0.1,1,0.2,1.6,0.2v-0.8v-1.8
				c-1.1,0-1.9-0.3-1.9-0.3c-0.1,0-0.5-0.2-1.1-0.3l0,0c-0.7-0.1-1.7-0.2-2.8-0.2c-2.2,0.1-5,1-7.2,3.8l2.1,1.7
				c0.1-0.2,0.3-0.4,0.5-0.5l6.8,5.4c-0.1,0.2-0.3,0.4-0.4,0.6l2.1,1.7c2.3-2.8,2.5-5.7,2.2-7.9C27,35.1,26.3,35,25.8,34.9z
				 M24.5,39.8L18,34.6c0.4-0.3,0.8-0.6,1.2-0.8l5.8,4.6C24.9,38.9,24.7,39.4,24.5,39.8z"/>
			<path fill="#3AC2D7" d="M25,29.2c0.3,0.1,0.6,0.1,0.8,0.2c-0.2-0.7-0.3-1.6-0.2-2.5l2.2,1.7v-0.4l1-0.2l-3-2.4
				c0.1-0.5,0.3-0.9,0.5-1.4l2.4,1.9l0.8-0.8l-2.6-2.1c0.1-0.2,0.3-0.4,0.4-0.6c0.1-0.2,0.3-0.4,0.5-0.5l2.8,2.2l0.8-0.8l-2.7-2.2
				c0.4-0.3,0.8-0.6,1.2-0.8l2.5,2l0.8-0.8l-2.1-1.7c1.1-0.3,2.1-0.4,2.9-0.3c0.4,0,0.8,0.1,1.1,0.1l1,0.2c0.5,0.1,1.6,0.4,3,0.4
				c2.3,0,5.4-0.8,7.9-3.9l-2.1-1.7c-0.2,0.2-0.3,0.4-0.5,0.5l-6.8-5.4c0.1-0.2,0.3-0.4,0.4-0.6L35.6,8c-2.3,2.8-2.5,5.7-2.2,7.9
				c1.3,0,2.3,0.2,2.8,0.4c-0.2-0.7-0.3-1.6-0.2-2.5l4.8,3.9c-2.4,0.7-4.4,0.1-4.6,0c-0.3-0.1-6.7-2.2-11.2,3.4
				c-2.3,2.8-2.5,5.7-2.2,7.9C23.6,29,24.3,29,25,29.2z M36.3,12.6c0.1-0.5,0.3-0.9,0.5-1.4l6.5,5.2c-0.4,0.3-0.8,0.6-1.2,0.8
				L36.3,12.6z"/>
		</g>
	</g>
</g>
<g id="Grid_Artboards">
</g>
</svg>
