<?xml version="1.0" encoding="utf-8"?>
<!-- Generator: Adobe Illustrator 18.1.1, SVG Export Plug-In . SVG Version: 6.00 Build 0)  -->
<svg version="1.1" xmlns="http://www.w3.org/2000/svg" xmlns:xlink="http://www.w3.org/1999/xlink" x="0px" y="0px"
	 viewBox="0 0 61.6 46.9" enable-background="new 0 0 61.6 46.9" xml:space="preserve">
<g id="Layer_1">
	<g>
		<path fill="#3BC2D7" d="M15,24.1h2.5v2H14h-1v-1V7V6h1h27.8h1v1v10.2h-2v-6H15V24.1L15,24.1z M31.9,8v1.6h8.6V8V7.6h-8.6V8L31.9,8
			z"/>
		<path fill="#3BC2D7" d="M32.9,18.8h14.7h1v1v12.8v1h-1H32.9h-1v-1V19.8v-1H32.9L32.9,18.8z M46.6,22.9H33.9v8.7h12.7V22.9
			L46.6,22.9z"/>
		<path fill="#3BC2D7" d="M20,18.8h9.4h1v1v17.5v1h-1H20h-1v-1V19.8v-1H20L20,18.8z M28.4,22.9H21v13.4h7.4V22.9L28.4,22.9z"/>
	</g>
</g>
<g id="Grid_Artboards">
</g>
</svg>
