<?xml version="1.0" encoding="utf-8"?>
<!-- Generator: Adobe Illustrator 19.1.0, SVG Export Plug-In . SVG Version: 6.00 Build 0)  -->
<svg version="1.1" id="Capa_1" xmlns="http://www.w3.org/2000/svg" xmlns:xlink="http://www.w3.org/1999/xlink" x="0px" y="0px"
	 viewBox="152 -152.7 354.7 354.7" style="enable-background:new 152 -152.7 354.7 354.7;" xml:space="preserve">
<style type="text/css">
	.st0{fill:#FFFFFF;}
	.st1{fill:#39C2D7;}
</style>
<g id="Layer_2">
	<ellipse class="st0" cx="333.1" cy="14.9" rx="118.9" ry="117.4"/>
</g>
<g>
	<g>
		<path class="st1" d="M502.8-118.1c-2.9-1.1-6.2-0.3-8.3,2.1c-1.1,1.3-27.7,32.1-29.6,77.4c-1.2,28.7-1.2,46.8,9.2,57
			c4.5,4.5,10.5,6.9,18.6,7.5v113c0,4.1,3.4,7.5,7.5,7.5s7.5-3.4,7.5-7.5V18.6v-0.1V-111C507.7-114.2,505.7-117,502.8-118.1z
			 M492.7,10.9c-3.7-0.4-6.4-1.5-8.1-3.1c-5.9-5.8-5.6-23.4-4.7-45.7c0.8-19.1,6.8-35.6,12.8-47.5L492.7,10.9L492.7,10.9z"/>
		<path class="st1" d="M333.5-105.3c-65.8,0-119.3,53.5-119.3,119.3s53.5,119.3,119.3,119.3S452.8,79.8,452.8,14
			S399.3-105.3,333.5-105.3z M333.5,118.2c-57.5,0-104.3-46.8-104.3-104.3S276-90.4,333.5-90.4S437.8-43.6,437.8,13.9
			C437.8,71.5,391,118.2,333.5,118.2z"/>
		<path class="st1" d="M333.5-70.5c-46.6,0-84.4,37.9-84.4,84.4s37.9,84.4,84.4,84.4s84.4-37.9,84.4-84.4S380-70.5,333.5-70.5z
			 M333.5,83.4c-38.3,0-69.4-31.2-69.4-69.4s31.2-69.4,69.4-69.4c38.3,0,69.4,31.2,69.4,69.4S371.8,83.4,333.5,83.4z"/>
		<path class="st1" d="M205.1-116.7c-4.1,0-7.5,3.4-7.5,7.5v35.5h-7.3v-35.5c0-4.1-3.4-7.5-7.5-7.5s-7.5,3.4-7.5,7.5v35.5H168v-35.5
			c0-4.1-3.4-7.5-7.5-7.5s-7.5,3.4-7.5,7.5v43c0,26.2,9.2,46.9,22.3,52.6v150.7c0,4.1,3.4,7.5,7.5,7.5s7.5-3.4,7.5-7.5V-13.6
			c13.1-5.7,22.3-26.5,22.3-52.6v-43C212.6-113.3,209.3-116.7,205.1-116.7z M182.8-27c-5.2,0-12.9-12.4-14.5-31.7h29
			C195.6-39.4,187.9-27,182.8-27z"/>
	</g>
</g>
<ellipse class="st1" cx="333.7" cy="13.6" rx="75.1" ry="72.3"/>
</svg>
