<?xml version="1.0" encoding="utf-8"?>
<!-- Generator: Adobe Illustrator 18.1.1, SVG Export Plug-In . SVG Version: 6.00 Build 0)  -->
<svg version="1.1" xmlns="http://www.w3.org/2000/svg" xmlns:xlink="http://www.w3.org/1999/xlink" x="0px" y="0px"
	 viewBox="0 0 61.6 46.9" enable-background="new 0 0 61.6 46.9" xml:space="preserve">
<g id="Layer_1">
	<path id="path-1_18_" fill="#ffffff" d="M44.3,15.6c-1,0.5-2.2,0.8-3.3,0.9c1.2-0.7,2.1-1.9,2.6-3.3c-1.1,0.7-2.4,1.2-3.7,1.4
		c-1.1-1.2-2.6-1.9-4.2-1.9c-3.2,0-5.8,2.7-5.8,5.9c0,0.5,0.1,0.9,0.1,1.4c-4.8-0.2-9.1-2.6-12-6.2c-0.5,0.9-0.8,1.9-0.8,3
		c0,2.1,1,3.9,2.6,4.9c-1,0-1.8-0.3-2.6-0.7c0,0,0,0,0,0.1c0,2.9,2,5.3,4.7,5.8c-0.5,0.1-1,0.2-1.5,0.2c-0.4,0-0.7,0-1.1-0.1
		c0.7,2.4,2.9,4.1,5.4,4.1c-2,1.6-4.5,2.5-7.2,2.5c-0.5,0-0.9,0-1.4-0.1c2.6,1.7,5.6,2.7,8.9,2.7c10.7,0,16.5-9.1,16.5-16.9
		c0-0.3,0-0.5,0-0.8C42.5,17.8,43.5,16.8,44.3,15.6z"/>
</g>
<g id="Grid_Artboards">
</g>
</svg>
