<?xml version="1.0" encoding="utf-8"?>
<!-- Generator: Adobe Illustrator 18.1.1, SVG Export Plug-In . SVG Version: 6.00 Build 0)  -->
<svg version="1.1" xmlns="http://www.w3.org/2000/svg" xmlns:xlink="http://www.w3.org/1999/xlink" x="0px" y="0px"
	 viewBox="0 0 61.6 46.9" enable-background="new 0 0 61.6 46.9" xml:space="preserve">
<g id="Layer_1">
	<path id="path-1_16_" fill="#ffffff" d="M43.9,24.1v3.6h-1.6v-3.6h-3.6v-1.6h3.6v-3.6h1.6v3.6h3.6v1.6H43.9z M34.6,13.2
		c3,1.8,3.3,7.2-0.8,9.1c-1.8,1-1.3,1.8,0.1,2.6c8.2,5,2.9,12.1-3.6,12.3c-0.1,0-0.2,0-0.3,0c-13.9-0.6-6.9-12,0-10.8
		c0.2,0,0.5,0.1,0.7,0.2c-0.4-0.4-0.6-0.9-0.7-1.5c-0.1-0.5-0.1-1.2,0-1.9h0h0c-7.4,2.2-10.2-10.6,0-11.4c0.1,0,0.2,0,0.3,0
		c2.3-0.1,7.9-0.1,7.9-0.1S37.5,13,34.6,13.2z M30,28l-0.1,0c-2.9,0.1-5.2,1.9-5.1,3.8c0.1,1.9,2.4,3.3,5.2,3.3c0.1,0,0.2,0,0.3,0
		c2.9-0.1,5.2-1.9,5.1-3.8C35.3,29.4,32.8,27.9,30,28z M33.5,16.7c-0.5-2-2-3.4-3.5-3.7c-0.4-0.1-0.8-0.1-1.3,0
		c-1.9,0.5-3,3-2.3,5.5c0.5,2,2,3.4,3.5,3.7c0.4,0.1,0.8,0.1,1.3,0C33.2,21.7,34.2,19.3,33.5,16.7z"/>
</g>
<g id="Grid_Artboards">
</g>
</svg>
