<?xml version="1.0" encoding="utf-8"?>
<!-- Generator: Adobe Illustrator 18.1.1, SVG Export Plug-In . SVG Version: 6.00 Build 0)  -->
<svg version="1.1" xmlns="http://www.w3.org/2000/svg" xmlns:xlink="http://www.w3.org/1999/xlink" x="0px" y="0px"
	 viewBox="0 0 61.6 46.9" enable-background="new 0 0 61.6 46.9" xml:space="preserve">
<g id="Layer_1">
	<g>
		<path fill="#3BC2D7" d="M33,9.3c-6.3,0-11.4,5.1-11.4,11.4c0,2.4,0.8,4.8,2.2,6.7l0.8,1.3l0-2.6c0,0-1.5-2.4-1.5-5.4
			c0-5.4,4.4-9.9,9.9-9.9s9.9,4.4,9.9,9.9c0,3.3-1.5,5.3-1.5,5.3l0,2.5l1-1.3c1.3-1.9,2.1-4.2,2.1-6.5C44.4,14.4,39.2,9.3,33,9.3z"
			/>
		<g>
			<g>
				<g>
					<path fill="#3BC2D7" d="M32.8,31.5c-3.3,0-6.5-1.4-6.7-1.5l-0.4-0.2v-2.4c0-1.9,3.4-2.8,4.4-3.1l0.4-0.1l0.3,0.3
						c0.7,0.7,1.7,1.9,2.3,2.7c0.6-0.8,1.7-2.1,2.3-2.7l0.3-0.3l0.4,0.1c1,0.2,4.4,1.2,4.4,3.1v2.4L40,30.1
						C39.8,30.1,36.1,31.5,32.8,31.5z"/>
				</g>
			</g>
			<g>
				<g>
					<path fill="#3BC2D7" d="M33,24.7c-1.6,0-2.9-1.5-3.4-4.1c-0.3-1.3-0.5-3.1,0.5-4.3c0.6-0.8,1.6-1.2,3-1.2c1.4,0,2.4,0.4,3,1.2
						c0.9,1.2,0.7,2.9,0.4,4.3C36,22.4,35.2,24.7,33,24.7z"/>
				</g>
			</g>
		</g>
		<g>
			<g>
				<path fill="#3BC2D7" d="M49.3,19.8l0-0.2l-1.6,0.1l0,0.2c0.1,2.6-0.4,5.2-1.6,7.6c-2.5,4.9-7.6,8-13.1,8c-2.3,0-4.7-0.6-6.7-1.6
					c-3.3-1.7-5.8-4.6-7.1-8.1L19,25.5L17.6,26l0.1,0.2c1.4,3.9,4.2,7.1,7.9,9c2.3,1.2,4.8,1.8,7.5,1.8c6.1,0,11.7-3.4,14.5-8.8
					C48.8,25.6,49.4,22.7,49.3,19.8z"/>
				<g>
					<polygon fill="#3BC2D7" points="15.9,27.4 17.5,22.1 21.4,26.1 					"/>
				</g>
			</g>
			<g>
				<path fill="#3BC2D7" d="M47.9,14.1c-1.5-3.4-4.1-6.2-7.4-7.9C38.1,5,35.6,4.4,33,4.4c-6.1,0-11.7,3.4-14.5,8.8
					c-1.1,2.2-1.8,4.6-1.8,7.1l0,0.2l1.6,0l0-0.2c0.1-2.2,0.6-4.4,1.6-6.4C22.4,9,27.5,6,33,6c2.4,0,4.6,0.6,6.7,1.6
					c3,1.5,5.4,4.1,6.7,7.1l0.1,0.2l1.5-0.6L47.9,14.1z"/>
				<g>
					<polygon fill="#3BC2D7" points="49.5,12.9 48.3,18.3 44.2,14.5 					"/>
				</g>
			</g>
		</g>
		<g>
			<g>
				<g>
					<path fill="#3BC2D7" d="M33,24.7c-1.6,0-2.9-1.5-3.4-4.1c-0.3-1.3-0.5-3.1,0.5-4.3c0.6-0.8,1.6-1.2,3-1.2c1.4,0,2.4,0.4,3,1.2
						c0.9,1.2,0.7,2.9,0.4,4.3C36,22.4,35.2,24.7,33,24.7z"/>
				</g>
			</g>
		</g>
	</g>
</g>
<g id="Grid_Artboards">
</g>
</svg>
